# ProBuilder 5.0.3
# https://unity3d.com/unity/features/worldbuilding/probuilder
# 1/30/2022 3:51:38 PM

mtllib ./LowerDeck.mtl
o LowerDeck

g Cube
v -7.500031 0 9.000036
v -7.500031 0 8.000032
v -7.500031 2.000008 9.000036
v -7.500031 2.000008 8.000032
v -5.500023 0 8.000032
v -5.500023 0 9.000036
v -5.500023 2.000008 8.000032
v -5.500023 2.000008 9.000036
v -5.000023 -1.000007 0.4999409
v 1.500006 -1.000004 0.4999018
v -8.000034 -2.980232E-06 0.4999523
v 4.50002 9.536743E-07 0.4999123
v -0.7500033 2.000029 9.000036
v -2.750011 2.000029 9.000036
v -0.7500029 3.000012 9.000036
v -2.750011 3.000012 9.000036
v -2.750011 2.000029 8.000032
v -2.750011 3.000012 8.000032
v -0.7500033 2.000029 8.000032
v -0.7500029 3.000012 8.000032
v -9.000037 2.000007 8.000131
v -9.000036 3.000012 8.000122
v 5.500023 2.000009 8.000167
v 5.500023 3.000013 8.000158
v -0.7500033 -7.152557E-07 8.000031
v 4.500018 7.152557E-07 8.000067
v -8.000023 -2.384186E-07 5.000009
v 4.500018 -2.384186E-07 5.000009
v -8.000023 -2.384186E-07 8.00001
v -2.750011 7.152557E-07 8.000067
v -4.750021 -2.145767E-06 0.4999409
v 1.250005 -9.536743E-07 0.4999018
v -4.75002 3.000004 0.4999514
v 1.250006 3.000004 0.4999123
v -4.750019 -2.384186E-07 0.7500029
v 1.250005 -2.384186E-07 0.7500029
v -4.750019 -2.384186E-07 5.000021
v 1.250005 -2.384186E-07 5.000021
v -9.000039 2.999913 -13.50005
v -9.000037 2.999913 0.5000024
v 5.500022 2.999937 -13.50005
v 5.500022 2.999937 0.5000024
v 5.500022 -1.000092 -13.50005
v -9.000039 -1.000116 -13.50005
v -8.999923 2.000009 8.000033
v -8.999935 2.000008 5.000021
v -8.999928 3.000005 8.000031
v -8.99994 3.000004 5.00002
v 4.000016 9.989738E-05 0.5000024
v 4.000016 9.989738E-05 0.7500033
v 1.750007 9.989738E-05 0.5000024
v 1.750007 9.989738E-05 0.7500033
v 4.500018 0 0.7500033
v 5.500022 2.000008 0.7500033
v 5.000021 2.000008 0.7500033
v 5.000021 2.000008 0.5000024
v 4.500018 0 0.5000024
v 5.500022 2.000008 0.5000024
v 5.500022 2.50001 0.7500033
v 5.000021 2.50001 0.7500033
v 5.000021 2.50001 0.5000024
v 5.500022 2.50001 0.5000024
v 5.500022 3.000112 0.7500033
v 5.000021 3.000112 0.7500033
v 5.000021 3.000112 0.5000024
v 5.500022 3.000112 0.5000024
v 1.750007 2.50001 0.7500033
v 1.750007 2.50001 0.5000024
v 1.750007 3.000112 0.7500033
v 1.750007 3.000112 0.5000024
v 1.249905 -9.989738E-05 0.7500033
v 1.249905 -9.989738E-05 0.5000024
v 1.249905 3.000112 0.7500033
v 1.249905 2.50001 0.7500033
v 1.249905 2.50001 0.5000024
v 1.249905 3.000112 0.5000024
v -8.99991 2.000009 0.4999909
v -8.999984 2.000008 -13.50006
v -8.999915 3.000005 0.4999886
v -8.99999 3.000005 -13.50006
v -8.00008 -9.298325E-06 -13.50007
v -7.999995 9.298325E-05 0.4999919
v -5.000088 -1.00003 -13.50011
v -4.999989 -1.000031 0.4999542
v 5.499951 2.000013 0.4999928
v 5.499928 2.000017 -13.50006
v 5.499962 3.00001 0.49999
v 5.499943 3.000014 -13.50006
v 4.50001 4.768372E-06 -13.50006
v 1.500008 -1 -13.50006
v 1.500004 -1.000003 0.5000057
v -5.000056 -0.9999146 0.5000076
v -5.000053 -0.9999137 -13.50006
v 5.499946 2.000009 8.000033
v 5.499921 2.000008 5.000021
v 5.499959 3.000005 8.000031
v 5.499933 3.000004 5.00002
v 1.500006 2.999912 0.7500033
v 1.500006 2.999912 4.75002
v 5.500022 2.999937 0.7500033
v 5.500022 2.999937 4.75002
v 5.749947 2.000008 0.7500119
v 5.749922 2.000007 -13.50006
v 5.749959 3.000005 0.7500081
v 5.749934 3.000004 -13.50006
v 4.750004 -2.861023E-06 -13.50006
v 4.750031 -1.430511E-06 0.7500176
v 5.499946 2.000009 4.750008
v 5.499921 2.000008 0.7500033
v 5.499958 3.000005 4.750005
v 5.499933 3.000004 0.7500024
v 4.500029 -4.768372E-07 4.750013
v 1.500006 9.989738E-05 0.7500033
v 1.500006 9.989738E-05 4.750019
v 5.749947 2.000008 8.750043
v 5.749959 3.000005 8.750039
v 4.75003 -1.430511E-06 8.750051
v -7.50003 9.989738E-05 4.75002
v -7.50003 9.989738E-05 5.000021
v -5.250021 9.989738E-05 4.75002
v -5.250021 9.989738E-05 5.000021
v -9.000036 2.000008 5.000021
v -8.500034 2.000008 5.000021
v -8.500034 2.000008 4.75002
v -8.000032 0 4.75002
v -9.000036 2.000008 4.75002
v -9.000036 2.50001 5.000021
v -8.500034 2.50001 5.000021
v -8.500034 2.50001 4.75002
v -9.000036 2.50001 4.75002
v -9.000036 3.000112 5.000021
v -8.500034 3.000112 5.000021
v -8.500034 3.000112 4.75002
v -9.000036 3.000112 4.75002
v -5.250021 2.50001 5.000021
v -5.250021 2.50001 4.75002
v -5.250021 3.000112 5.000021
v -5.250021 3.000112 4.75002
v -4.749919 -9.989738E-05 5.000021
v -4.749919 -9.989738E-05 4.75002
v -4.749919 3.000112 5.000021
v -4.749919 2.50001 5.000021
v -4.749919 2.50001 4.75002
v -4.749919 3.000112 4.75002
v 1.500097 3 0.7500196
v 1.500097 3 4.750019
v -7.50003 9.989738E-05 0.5000024
v -7.50003 9.989738E-05 0.7500033
v -5.250021 9.989738E-05 0.5000024
v -5.250021 9.989738E-05 0.7500033
v -8.000032 0 0.7500033
v -9.000036 2.000008 0.7500033
v -8.500034 2.000008 0.7500033
v -8.500034 2.000008 0.5000024
v -8.000032 0 0.5000024
v -9.000036 2.000008 0.5000024
v -9.000036 2.50001 0.7500033
v -8.500034 2.50001 0.7500033
v -8.500034 2.50001 0.5000024
v -9.000036 2.50001 0.5000024
v -9.000036 3.000112 0.7500033
v -8.500034 3.000112 0.7500033
v -8.500034 3.000112 0.5000024
v -9.000036 3.000112 0.5000024
v -5.250021 2.50001 0.7500033
v -5.250021 2.50001 0.5000024
v -5.250021 3.000112 0.7500033
v -5.250021 3.000112 0.5000024
v -4.749919 -9.989738E-05 0.7500033
v -4.749919 -9.989738E-05 0.5000024
v -4.749919 3.000112 0.7500033
v -4.749919 2.50001 0.7500033
v -4.749919 2.50001 0.5000024
v -4.749919 3.000112 0.5000024
v -8.99991 2.000009 4.750008
v -8.999935 2.000008 0.7500033
v -8.999915 3.000005 4.750005
v -8.99994 3.000004 0.7500024
v -8.000007 -6.67572E-06 4.75
v -8.000031 -7.867813E-06 0.7499909
v 4.000016 9.989738E-05 4.75002
v 4.000016 9.989738E-05 5.000021
v 1.750007 9.989738E-05 4.75002
v 1.750007 9.989738E-05 5.000021
v 5.500022 2.000008 5.000021
v 5.000021 2.000008 5.000021
v 5.000021 2.000008 4.75002
v 5.500022 2.000008 4.75002
v 5.500022 2.50001 5.000021
v 5.000021 2.50001 5.000021
v 5.000021 2.50001 4.75002
v 5.500022 2.50001 4.75002
v 5.500022 3.000112 5.000021
v 5.000021 3.000112 5.000021
v 5.000021 3.000112 4.75002
v 5.500022 3.000112 4.75002
v 1.750007 2.50001 5.000021
v 1.750007 2.50001 4.75002
v 1.750007 3.000112 5.000021
v 1.750007 3.000112 4.75002
v 1.249905 -9.989738E-05 5.000021
v 1.249905 -9.989738E-05 4.75002
v 1.249905 3.000112 5.000021
v 1.249905 2.50001 5.000021
v 1.249905 2.50001 4.75002
v 1.249905 3.000112 4.75002
v -9.249936 2.00001 -13.50005
v -9.24993 2.000008 0.7500501
v -9.249945 3.000016 -13.50005
v -9.249943 3.000014 0.7500482
v -8.250031 -1.132488E-06 0.7500572
v -8.250038 -5.364418E-07 -13.50006
v -5.000113 -1.430511E-06 4.74999
v -5.000089 -1.430511E-06 0.7499876
v -5.000104 2.999999 4.74999
v -5.00008 3 0.7499881
v -5.000012 9.822845E-05 4.750007
v -4.999989 9.822845E-05 0.7499876
v -5.000013 2.999911 4.750006
v -4.99999 2.999911 0.7499876
v -9.000031 2.999937 4.74998
v -9.000007 2.999937 0.7499638
v -9.249933 2.00001 0.7499752
v -9.249931 2.000008 8.750048
v -9.249944 3.000015 0.7499743
v -9.249944 3.000015 8.750047
v -8.250031 -1.430511E-06 8.750054
v -8.250036 -2.384186E-07 0.7499676

vt -0.7500024 0
vt 0.2500014 0
vt -0.7500024 2.000008
vt 0.2500014 2.000008
vt -0.250001 0
vt 0.7500029 0
vt -0.250001 2.000008
vt 0.7500029 2.000008
vt -4.768372E-07 0.7500029
vt -2.000008 0.7500029
vt -2.384186E-07 -0.250001
vt -2.000008 -0.250001
vt 2.000008 -0.250001
vt 2.000008 0.7500029
vt -3.33786E-06 -6.250028
vt 4.768372E-07 0.2500005
vt 1.000001 -9.250038
vt 1.000005 3.250013
vt 4.768372E-07 2.000029
vt 2.000008 2.000029
vt 0 3.000012
vt 2.000008 3.000012
vt -1.000005 2.000029
vt -1.000005 3.000012
vt 1.000005 2.000029
vt 1.000005 3.000012
vt 0 1.000005
vt -2.000008 1.000005
vt 0 2.384186E-07
vt -2.000008 2.384186E-07
vt -1.000015 -5.750013
vt -1.000014 0.5000134
vt -2.00002 -5.750014
vt -2.000019 0.5000124
vt -1.000016 -5.000012
vt -1.000014 1.250015
vt -2.00002 -5.000012
vt -2.000019 1.250014
vt -6.250027 2.000009
vt -5.250021 7.152557E-07
vt 9.500023 0
vt -3.000017 -4.768372E-07
vt 9.500023 3.000002
vt -3.000017 3.000002
vt 9.000036 2.000007
vt 6.250026 2.000009
vt 9.000036 -7.153485E-07
vt 6.250026 7.15163E-07
vt -2.000003 -6.000025
vt 1.000003 -6.000024
vt 1.000004 9.536743E-07
vt 6.250025 -0.7500033
vt 0.2500014 -0.7500033
vt 6.250025 3.500015
vt 0.2500014 3.500015
vt 8.250034 2.000007
vt 6.750028 2.000009
vt 7.25003 -7.114941E-07
vt 6.750028 7.205072E-07
vt -10.50004 -10.00004
vt -10.50004 4.000016
vt 4.000016 -10.00004
vt 4.000016 4.000016
vt -4.000017 3.671646E-05
vt 10.50007 5.912781E-05
vt -4.000017 4.000105
vt 10.50007 4.000127
vt -7.390976E-06 -3.000013
vt -1.000004 -3.000011
vt -1.000004 9.536743E-07
vt 2.236073 -3.000012
vt 2.236077 5.960464E-06
vt 1.500007 3.750015
vt 1.500007 4.000016
vt 3.750015 3.750015
vt 3.750015 4.000016
vt -0.5000029 0
vt 0.5000019 2.000008
vt 0 -0.223608
vt -0.250001 -0.223608
vt 0 2.01247
vt -0.250001 2.01247
vt 0.5000029 -1.192093E-07
vt -0.5000019 2.000008
vt -0.5000019 -0.250001
vt 1.000005 2.50001
vt 0.5000029 2.50001
vt 0 2.50001
vt -0.250001 2.50001
vt -0.5000029 2.50001
vt -1.000005 2.50001
vt 0.5000029 3.000112
vt -0.5000029 3.000112
vt 0.5000029 -0.250001
vt -2.75001 0
vt -2.75001 -0.250001
vt -2.750011 3.000112
vt -2.750011 2.50001
vt 2.750011 2.50001
vt 2.750011 3.000112
vt -3.250113 0
vt -3.250113 -0.250001
vt -3.250113 3.000112
vt -3.250113 2.50001
vt 3.250113 2.50001
vt 3.250113 3.000112
vt 0.250001 2.50001
vt 2.750011 -9.965897E-05
vt 3.250113 -9.965897E-05
vt -8.583069E-06 -4.000004
vt -7.629395E-06 10.00004
vt -1.000008 -4.000001
vt -1.000008 10.00004
vt 2.236077 -4.000003
vt 2.236094 10.00005
vt 7.111028 -9.324654
vt 7.110933 4.675407
vt 3.948697 -9.324692
vt 3.948602 4.675369
vt 7.629395E-06 -3.99998
vt 1.000007 -3.999978
vt 1.000011 10.00006
vt -2.236079 -3.999981
vt -2.236045 10.00007
vt 3.948654 -3.000031
vt 3.94866 11.00002
vt 7.110974 -3.000031
vt 7.110978 11.00002
vt -3.99999 4
vt 10.00006 3.999908
vt -3.999952 10.50006
vt 10.00011 10.49997
vt 1.000004 -3.000011
vt -2.236075 -3.000012
vt -2.236077 6.67572E-06
vt -4.768372E-07 4.000016
vt 4.000016 0
vt -7.629395E-06 -8.000039
vt -5.722046E-06 6.250029
vt -1.000005 -8.000035
vt -1.000004 6.250029
vt 2.236058 6.250038
vt 2.236091 -8.000034
vt 1.000004 -4
vt -2.236075 -4.000003
vt 1.000005 4.000016
vt -1.500006 3.750015
vt -1.500006 4.000016
vt -3.750015 3.750015
vt -3.750015 4.000016
vt 2.000009 -2.384186E-07
vt 2.500012 -2.384186E-07
vt 1.500007 2.000008
vt -8.000032 -0.2236079
vt -7.750032 -0.2236079
vt -8.000032 2.01247
vt -7.750032 2.01247
vt -2.500012 1.192093E-07
vt -1.500007 2.000008
vt 2.50001 -0.250001
vt 1.500008 2.50001
vt -8.000032 2.000008
vt -7.750032 2.000008
vt -8.000032 2.50001
vt -7.750032 2.50001
vt -1.500008 2.50001
vt 1.500006 3.000112
vt -1.500006 3.000112
vt 1.500007 0
vt 1.500007 -0.250001
vt 4.75002 0
vt 4.75002 -0.250001
vt 4.75002 3.000112
vt 4.75002 2.50001
vt -4.75002 2.50001
vt -4.75002 3.000113
vt 5.250122 0
vt 5.250122 -0.250001
vt 5.250122 3.000112
vt 5.250122 2.50001
vt -5.250122 2.50001
vt -5.250122 3.000112
vt 8.000032 2.50001
vt 7.750032 2.50001
vt 8.000032 -0.0001001358
vt 7.750032 -0.0001001358
vt -4.75002 -0.0001001358
vt 3 -4
vt 3 -2.384186E-07
vt -2.00001 -10.25004
vt -2.000009 4.000062
vt -3.000015 -10.25004
vt -3.000012 4.00006
vt -1.788853 4.000063
vt -1.788856 -10.25004
vt 0.4471769 4.000071
vt 0.4471741 -10.25005
vt 3 -4
vt 0.9999837 2.479553E-05
vt 3.999992 -4.768372E-07
vt 4.000016 3.999999
vt 0 3.999993
vt 3.999991 4.000016
vt -2.000008 -4.000003
vt -3.000014 -4.000004
vt -1.788855 -4.000002
vt 0.4471738 -4.00001

vn 1 0 -2.384177E-07
vn -1 0 -2.384177E-07
vn 0 -1 0
vn 0 1 0
vn -6.015454E-06 -6.602311E-06 -1
vn 0 0 1
vn 0.8944458 0.4471762 -3.874052E-06
vn -0.8944271 0.4472139 0
vn 0.3162621 0.9486718 -2.251301E-06
vn -0.3162568 0.9486737 1.723191E-07
vn 0.8944427 -0.4471825 -1.526429E-06
vn -0.8944459 -0.4471761 2.918241E-07

usemtl ProBuilder_Default_URP
f 1/1/1 2/2/1 4/4/1 3/3/1
f 5/5/2 6/6/2 8/8/2 7/7/2
f 8/9/3 3/10/3 4/12/3 7/11/3
f 5/11/4 2/13/4 1/14/4 6/9/4
f 11/17/5 12/18/5 10/16/5 9/15/5
f 13/19/5 14/20/5 16/22/5 15/21/5
f 14/23/1 17/19/1 18/21/1 16/24/1
f 19/19/2 13/25/2 15/26/2 20/21/2
f 15/27/3 16/28/3 18/30/3 20/29/3
f 17/31/5 21/32/5 22/34/5 18/33/5
f 23/35/5 19/36/5 20/38/5 24/37/5
f 26/40/5 25/29/5 19/19/5 23/39/5
f 29/43/4 26/44/4 28/42/4 27/41/4
f 30/48/5 5/47/5 7/45/5 17/46/5
f 33/50/5 34/51/5 32/30/5 31/49/5
f 37/54/4 38/55/4 36/53/4 35/52/4
f 2/59/5 29/58/5 21/56/5 4/57/5
f 41/62/3 42/63/3 40/61/3 39/60/3
f 44/67/6 43/66/6 41/64/6 39/65/6
f 45/68/1 46/29/1 48/70/1 47/69/1
f 45/68/7 29/71/7 27/72/7 46/29/7
f 51/75/4 52/76/4 50/74/4 49/73/4
f 54/25/6 55/78/6 50/77/6 53/29/6
f 55/81/8 56/82/8 49/80/8 50/79/8
f 56/84/5 58/23/5 57/29/5 49/83/5
f 53/29/3 50/77/3 49/85/3 57/11/3
f 59/86/6 60/87/6 55/78/6 54/25/6
f 60/88/2 61/89/2 56/7/2 55/19/2
f 61/90/5 62/91/5 58/23/5 56/84/5
f 63/26/6 64/92/6 60/87/6 59/86/6
f 65/93/5 66/24/5 62/91/5 61/90/5
f 67/95/3 68/96/3 61/94/3 60/83/3
f 69/97/6 67/98/6 60/87/6 64/92/6
f 68/99/5 70/100/5 65/93/5 61/90/5
f 71/101/3 72/102/3 51/96/3 52/95/3
f 73/103/6 74/104/6 67/98/6 69/97/6
f 75/105/5 76/106/5 70/100/5 68/99/5
f 52/29/1 51/2/1 68/107/1 67/88/1
f 71/101/6 52/95/6 67/98/6 74/104/6
f 51/108/5 72/109/5 75/105/5 68/99/5
f 77/110/1 78/111/1 80/113/1 79/112/1
f 77/110/7 11/114/7 81/115/7 78/111/7
f 81/116/9 82/117/9 84/119/9 83/118/9
f 87/121/2 88/122/2 86/111/2 85/120/2
f 89/124/8 12/123/8 85/120/8 86/111/8
f 90/127/10 91/128/10 57/126/10 89/125/10
f 93/132/4 92/131/4 91/129/4 90/130/4
f 96/133/2 97/51/2 95/29/2 94/68/2
f 28/135/8 26/134/8 94/68/8 95/29/8
f 100/137/3 101/63/3 99/136/3 98/29/3
f 102/138/1 103/139/1 105/141/1 104/140/1
f 107/143/11 106/142/11 103/139/11 102/138/11
f 110/144/2 111/51/2 109/29/2 108/110/2
f 53/135/8 112/145/8 108/110/8 109/29/8
f 113/137/4 114/63/4 112/146/4 53/51/4
f 115/138/1 102/29/1 104/70/1 116/140/1
f 117/143/11 107/72/11 102/29/11 115/138/11
f 118/147/4 119/148/4 121/150/4 120/149/4
f 27/151/6 119/152/6 123/153/6 122/25/6
f 119/154/7 118/155/7 124/157/7 123/156/7
f 118/158/5 125/30/5 126/23/5 124/159/5
f 125/13/3 118/160/3 119/152/3 27/151/3
f 122/25/6 123/153/6 128/161/6 127/86/6
f 123/162/1 124/163/1 129/165/1 128/164/1
f 124/159/5 126/23/5 130/91/5 129/166/5
f 127/86/6 128/161/6 132/167/6 131/26/6
f 129/166/5 130/91/5 134/24/5 133/168/5
f 128/169/3 129/170/3 136/172/3 135/171/3
f 132/167/6 128/161/6 135/174/6 137/173/6
f 129/166/5 133/168/5 138/176/5 136/175/5
f 121/171/3 120/172/3 140/178/3 139/177/3
f 137/173/6 135/174/6 142/180/6 141/179/6
f 136/175/5 138/176/5 144/182/5 143/181/5
f 135/183/2 136/184/2 120/186/2 121/185/2
f 142/180/6 135/174/6 121/171/6 139/177/6
f 136/175/5 143/181/5 140/40/5 120/187/5
f 145/188/1 146/189/1 114/29/1 113/110/1
f 147/147/4 148/148/4 150/150/4 149/149/4
f 151/151/6 148/152/6 153/153/6 152/25/6
f 148/154/7 147/155/7 154/157/7 153/156/7
f 147/158/5 155/30/5 156/23/5 154/159/5
f 155/13/3 147/160/3 148/152/3 151/151/3
f 152/25/6 153/153/6 158/161/6 157/86/6
f 153/162/1 154/163/1 159/165/1 158/164/1
f 154/159/5 156/23/5 160/91/5 159/166/5
f 157/86/6 158/161/6 162/167/6 161/26/6
f 159/166/5 160/91/5 164/24/5 163/168/5
f 158/169/3 159/170/3 166/172/3 165/171/3
f 162/167/6 158/161/6 165/174/6 167/173/6
f 159/166/5 163/168/5 168/176/5 166/175/5
f 150/171/3 149/172/3 170/178/3 169/177/3
f 167/173/6 165/174/6 172/180/6 171/179/6
f 166/175/5 168/176/5 174/182/5 173/181/5
f 165/183/2 166/184/2 149/186/2 150/185/2
f 172/180/6 165/174/6 150/171/6 169/177/6
f 166/175/5 173/181/5 170/40/5 149/187/5
f 175/110/1 176/29/1 178/70/1 177/112/1
f 175/110/7 179/114/7 180/72/7 176/29/7
f 183/75/4 184/76/4 182/74/4 181/73/4
f 185/25/6 186/78/6 182/77/6 28/29/6
f 186/81/8 187/82/8 181/80/8 182/79/8
f 187/84/5 188/23/5 112/29/5 181/83/5
f 28/29/3 182/77/3 181/85/3 112/11/3
f 189/86/6 190/87/6 186/78/6 185/25/6
f 190/88/2 191/89/2 187/7/2 186/19/2
f 191/90/5 192/91/5 188/23/5 187/84/5
f 193/26/6 194/92/6 190/87/6 189/86/6
f 195/93/5 196/24/5 192/91/5 191/90/5
f 197/95/3 198/96/3 191/94/3 190/83/3
f 199/97/6 197/98/6 190/87/6 194/92/6
f 198/99/5 200/100/5 195/93/5 191/90/5
f 201/101/3 202/102/3 183/96/3 184/95/3
f 203/103/6 204/104/6 197/98/6 199/97/6
f 205/105/5 206/106/5 200/100/5 198/99/5
f 184/29/1 183/2/1 198/107/1 197/88/1
f 201/101/6 184/95/6 197/98/6 204/104/6
f 183/108/5 202/109/5 205/105/5 198/99/5
f 207/190/2 208/191/2 210/193/2 209/192/2
f 212/197/12 211/196/12 208/194/12 207/195/12
f 215/198/2 216/189/2 214/29/2 213/120/2
f 217/200/4 218/201/4 180/146/4 179/199/4
f 221/137/3 222/203/3 220/202/3 219/29/3
f 223/204/2 224/191/2 226/193/2 225/205/2
f 228/207/12 227/196/12 224/194/12 223/206/12

